/* XPM */
static char * bitcoin16_xpm[] = {
"16 16 75 1",
" 	c None",
".	c #FFA027",
"+	c #FF9D21",
"@	c #FF9C1E",
"#	c #FF9C1D",
"$	c #FF9C1F",
"%	c #FFA531",
"&	c #FF9916",
"*	c #FF960F",
"=	c #FF950D",
"-	c #FF940C",
";	c #FF950C",
">	c #FFA128",
",	c #FF940B",
"'	c #FF940A",
")	c #FF9917",
"!	c #FFA737",
"~	c #FF9814",
"{	c #FFA32D",
"]	c #FF9A17",
"^	c #FF9F25",
"/	c #FE9611",
"(	c #FF9815",
"_	c #FF9711",
":	c #FF9105",
"<	c #FF960E",
"[	c #FF9205",
"}	c #FF9F24",
"|	c #FF9309",
"1	c #FE930B",
"2	c #F7900D",
"3	c #FF9B1B",
"4	c #FF9A1B",
"5	c #FFAB41",
"6	c #FFA22B",
"7	c #FF930B",
"8	c #F6900D",
"9	c #FF9A18",
"0	c #FFA83A",
"a	c #F5900D",
"b	c #FF9915",
"c	c #FF9308",
"d	c #FE940B",
"e	c #F38E0C",
"f	c #FF9E23",
"g	c #EE8B0C",
"h	c #FF9712",
"i	c #FF9207",
"j	c #FF9610",
"k	c #FC920B",
"l	c #E7870C",
"m	c #FF9D1F",
"n	c #F68E0B",
"o	c #F9920F",
"p	c #FF930A",
"q	c #FF9B1D",
"r	c #FF9611",
"s	c #FB920B",
"t	c #D97F0C",
"u	c #F58F0C",
"v	c #FE9B1D",
"w	c #FFA532",
"x	c #FFA93B",
"y	c #DE820B",
"z	c #EB8A0E",
"A	c #FA900A",
"B	c #FC920A",
"C	c #FD930B",
"D	c #F48E0B",
"E	c #D57D0B",
"F	c #E9880C",
"G	c #EB8A0C",
"H	c #ED8A0C",
"I	c #E7860B",
"J	c #DF820B",
"     .+@##$     ",
"   %&*=--;=*#   ",
"  >*-,,,') !*~  ",
" {*,,,,,] . ^-/ ",
" (-,,,,_  :{_,, ",
"+<,,,'[}  |,,,12",
"3-,,,45  6:,,,78",
"9,,,,,_  #0|,,,a",
"b-,,,,.  c,,,,de",
"~,,,,|  f,,,,,1g",
"h-,,,i  j,,,,,kl",
" ,,*(m 6',,,,7n ",
" op  q r,,,,,st ",
"  uvwxj,,,,1sy  ",
"   zAB111CkDE   ",
"     FGHGIJ     "};
