/* XPM */
static char * bitcoin64_xpm[] = {
"64 64 320 2",
"  	c None",
". 	c #FFB252",
"+ 	c #FFB04C",
"@ 	c #FFAD46",
"# 	c #FFAB3F",
"$ 	c #FFA839",
"% 	c #FFA738",
"& 	c #FFAA3D",
"* 	c #FFAD43",
"= 	c #FFAD44",
"- 	c #FFAF48",
"; 	c #FFB24D",
"> 	c #FFAA3E",
", 	c #FF9E22",
"' 	c #FF9A19",
") 	c #FF9915",
"! 	c #FF9815",
"~ 	c #FF9814",
"{ 	c #FF9A18",
"] 	c #FFA32E",
"^ 	c #FFAC42",
"/ 	c #FFB353",
"( 	c #FFA431",
"_ 	c #FF9916",
": 	c #FF9714",
"< 	c #FF9813",
"[ 	c #FF9712",
"} 	c #FF9713",
"| 	c #FF9C1D",
"1 	c #FFA93D",
"2 	c #FF9D21",
"3 	c #FF9816",
"4 	c #FF9711",
"5 	c #FF9611",
"6 	c #FF9610",
"7 	c #FF9612",
"8 	c #FFA32F",
"9 	c #FFB14F",
"0 	c #FF9710",
"a 	c #FF960F",
"b 	c #FF960E",
"c 	c #FFA32D",
"d 	c #FFB95F",
"e 	c #FFA229",
"f 	c #FF950D",
"g 	c #FF940D",
"h 	c #FF940C",
"i 	c #FF950E",
"j 	c #FFAE46",
"k 	c #FF940B",
"l 	c #FFA632",
"m 	c #FF950C",
"n 	c #FEAB42",
"o 	c #FFBE6A",
"p 	c #FFA027",
"q 	c #FF940A",
"r 	c #FF9309",
"s 	c #FF930A",
"t 	c #FFA533",
"u 	c #FFBA61",
"v 	c #FF9D20",
"w 	c #FF9209",
"x 	c #FFA42E",
"y 	c #FFAB41",
"z 	c #FFA430",
"A 	c #FFC173",
"B 	c #FFB55D",
"C 	c #FF9B1B",
"D 	c #FFA129",
"E 	c #FFBC66",
"F 	c #FFB559",
"G 	c #FFEBD3",
"H 	c #FF9A1B",
"I 	c #FFA026",
"J 	c #FF9206",
"K 	c #FF9105",
"L 	c #FF8F02",
"M 	c #FFC57E",
"N 	c #FF9C21",
"O 	c #FF950F",
"P 	c #FEA532",
"Q 	c #FFA93C",
"R 	c #FF9308",
"S 	c #FFB960",
"T 	c #FF9208",
"U 	c #FFBC67",
"V 	c #FF9106",
"W 	c #FFD7A4",
"X 	c #FE9611",
"Y 	c #FFB556",
"Z 	c #FF9A17",
"` 	c #FFB049",
" .	c #FF9917",
"..	c #FFA22E",
"+.	c #FF9B1A",
"@.	c #FA981A",
"#.	c #FFA025",
"$.	c #FF9409",
"%.	c #FFC175",
"&.	c #FF9207",
"*.	c #FFA83B",
"=.	c #FFEDD3",
"-.	c #FE930A",
";.	c #FF9918",
">.	c #FFA128",
",.	c #FFDDB3",
"'.	c #F99411",
").	c #FFCA86",
"!.	c #FF9F26",
"~.	c #FFEBD1",
"{.	c #FFB555",
"].	c #FE940B",
"^.	c #FF930B",
"/.	c #FE930B",
"(.	c #F59011",
"_.	c #FF9C1E",
":.	c #FF9005",
"<.	c #FFCE8F",
"[.	c #FE920B",
"}.	c #FFB251",
"|.	c #FFE9CE",
"1.	c #ED9018",
"2.	c #FF9107",
"3.	c #FFC579",
"4.	c #F68D07",
"5.	c #FF9E21",
"6.	c #FFAC45",
"7.	c #FD930B",
"8.	c #FD920B",
"9.	c #FFAA3F",
"0.	c #FFBB65",
"a.	c #FC920B",
"b.	c #E58D1A",
"c.	c #FFB85E",
"d.	c #FFD9A8",
"e.	c #FFBA63",
"f.	c #FFB356",
"g.	c #FFCE90",
"h.	c #FFBE6B",
"i.	c #ED8B0D",
"j.	c #FFE5C2",
"k.	c #FFA83A",
"l.	c #FB920B",
"m.	c #F78E07",
"n.	c #FFAB42",
"o.	c #FFA93B",
"p.	c #FFC781",
"q.	c #FFB961",
"r.	c #D98313",
"s.	c #FFDEB4",
"t.	c #FFD196",
"u.	c #FFC06E",
"v.	c #FF950B",
"w.	c #FB930B",
"x.	c #E0891A",
"y.	c #FFA737",
"z.	c #FF9F23",
"A.	c #FFAE4A",
"B.	c #FFB454",
"C.	c #FFB659",
"D.	c #FFCF8F",
"E.	c #DD8617",
"F.	c #FFA22D",
"G.	c #FFB355",
"H.	c #FF8F05",
"I.	c #FB910B",
"J.	c #DE8411",
"K.	c #FFBF6E",
"L.	c #FFC478",
"M.	c #FC930B",
"N.	c #F9910B",
"O.	c #DE830C",
"P.	c #FFF4E6",
"Q.	c #FFAD47",
"R.	c #DC810C",
"S.	c #FF9B1C",
"T.	c #FA910B",
"U.	c #DA8111",
"V.	c #FFCE8E",
"W.	c #F9900B",
"X.	c #D78216",
"Y.	c #FFE2BE",
"Z.	c #FFBA62",
"`.	c #FA900B",
" +	c #D17F17",
".+	c #F8900B",
"++	c #CA7912",
"@+	c #FFB75F",
"#+	c #FFD095",
"$+	c #FF9006",
"%+	c #FA920B",
"&+	c #F58E0B",
"*+	c #F88F0B",
"=+	c #EB8606",
"-+	c #FE9A18",
";+	c #FFE9CD",
">+	c #F7900B",
",+	c #D77D0B",
"'+	c #FFA73B",
")+	c #FF9007",
"!+	c #C77915",
"~+	c #FFB456",
"{+	c #FFDCAF",
"]+	c #F68F0B",
"^+	c #DF8007",
"/+	c #FF9C20",
"(+	c #FFBF6C",
"_+	c #F78F0B",
":+	c #C07412",
"<+	c #EE8A0A",
"[+	c #FE9712",
"}+	c #FFBC68",
"|+	c #F68E0B",
"1+	c #C7750C",
"2+	c #FFE7CA",
"3+	c #EF8B09",
"4+	c #FA9512",
"5+	c #FFBB64",
"6+	c #FFC57B",
"7+	c #FFAB40",
"8+	c #FFA532",
"9+	c #C0710C",
"0+	c #FC9008",
"a+	c #FFC984",
"b+	c #FFAC43",
"c+	c #FFCC8C",
"d+	c #FF9004",
"e+	c #E48308",
"f+	c #F39319",
"g+	c #FFD198",
"h+	c #F48E0B",
"i+	c #F28C0A",
"j+	c #AE690F",
"k+	c #F5900E",
"l+	c #FE9208",
"m+	c #FFB658",
"n+	c #FFA028",
"o+	c #FFA22C",
"p+	c #C6740A",
"q+	c #F78F09",
"r+	c #FF9104",
"s+	c #FFC986",
"t+	c #FFA330",
"u+	c #F48D0A",
"v+	c #DB7E08",
"w+	c #E28F26",
"x+	c #F88E0A",
"y+	c #FE9209",
"z+	c #FEB65C",
"A+	c #FFD5A0",
"B+	c #FFD49C",
"C+	c #FF9C1F",
"D+	c #F48E0A",
"E+	c #965F18",
"F+	c #E48B1A",
"G+	c #F9900A",
"H+	c #FE9106",
"I+	c #FEC278",
"J+	c #FFB557",
"K+	c #FFB457",
"L+	c #F38D0A",
"M+	c #EB8809",
"N+	c #9D6011",
"O+	c #DF8717",
"P+	c #F8900A",
"Q+	c #FD9006",
"R+	c #FEB253",
"S+	c #FED096",
"T+	c #FFCD8D",
"U+	c #FFAA41",
"V+	c #EB8709",
"W+	c #A0610F",
"X+	c #D8841A",
"Y+	c #F68E0A",
"Z+	c #FC9109",
"`+	c #FD9007",
" @	c #FE940E",
".@	c #FE930C",
"+@	c #F38C0A",
"@@	c #E48309",
"#@	c #9A5F10",
"$@	c #D28624",
"%@	c #EF8A0A",
"&@	c #D87D08",
"*@	c #915D17",
"=@	c #E3860D",
"-@	c #C1710A",
";@	c #D17E14",
">@	c #F18B09",
",@	c #F38E0A",
"'@	c #E18208",
")@	c #A56310",
"!@	c #D8800F",
"~@	c #ED8909",
"{@	c #B96D0C",
"]@	c #D67E0E",
"^@	c #F8910B",
"/@	c #BC6F0C",
"(@	c #E48307",
"_@	c #F58E0A",
":@	c #D67B06",
"<@	c #B26A0F",
"[@	c #C77713",
"}@	c #D67D0C",
"|@	c #EB8707",
"1@	c #F58F0B",
"2@	c #F68F0A",
"3@	c #E58307",
"4@	c #CA760A",
"5@	c #B66E10",
"6@	c #BB6F0E",
"7@	c #C57814",
"8@	c #C67812",
"9@	c #C8760E",
"0@	c #C8750A",
"a@	c #C7740A",
"b@	c #C5740D",
"c@	c #C27412",
"d@	c #BD7213",
"e@	c #B3690D",
"                                                      . + @ # $ % & * = -                                                       ",
"                                              ; > , ' ) ! ~ ~ ! ! ~ ~ ~ ~ ! { ] ^                                               ",
"                                        / ( ' ! ) _ ! ! : < < [ [ [ } [ } [ < } } < | 1                                         ",
"                                    - 2 ! _ 3 ! : ~ [ [ 4 [ 5 5 5 6 5 5 5 4 7 4 [ } [ [ ! 8                                     ",
"                                9 | _ _ _ ~ } [ 4 4 0 a a b a a a a a a a a a a 6 0 4 4 [ 4 < c                                 ",
"                            d e 3 _ ! ~ [ [ 0 a a a f g h h h h h h h h h h f i i a a a 6 5 4 4 ! %                             ",
"                          j { _ 3 ~ [ 4 a a i h h h k k k k k k k k k k k k k h h h f i b a a 6 6 0 ,                           ",
"                        l 3 _ ! } 4 6 a g h h k k k k k k k k k k k k k k k k k k h h h m f i i a 6 a ! n                       ",
"                    o p _ _ ~ [ 6 a f h h k k k k k k k k k k k k k k k k k k k k q q k r s h f i a a a 6 t                     ",
"                  u v _ ! } 5 a i h h h k k k k k k k k k k k k k k k k k k k r w x y z A B C w h f i a a 6 D                   ",
"                E v _ ! } 0 b f h h k k k k k k k k k k k k k k k k k k k r 5 F G               H k h f i i i D                 ",
"                I _ ! [ 4 a f h h k k k k k k k k k k k k k k k k k k k J 9           1 K L M     N h h f f f O P               ",
"              ] ) ! [ 0 a h h h k k k k k k k k k k k k k k k k k k k J /           Q R r S         T h h h h f f               ",
"            y ) 3 } 6 a h h k k k k k k k k k k k k k k k k k k k k J U           U V K W           b h h h h h h X             ",
"          Y Z ! < 5 O f h k k k k k k k k k k k k k k k k k k k k V `              .q ..            +.k h h h h h h @.          ",
"          #.! ~ [ a f h k k k k k k k k k k k k k k k k k k k k $.j             %.&.q *.          =.V k k k h h h h -.          ",
"        j ~ ! [ a f h h k k k k k k k k k k k k k k k k k k k k ;.              >.q k V ,.        / R k k k k k k k k '.        ",
"        C ! } 6 b h h k k k k k k k k k k k k k k k k k k k k K ).            ,.&.k k k !.    ~.{.V k k k k k k k k ].-.        ",
"      & ~ } [ a f h k k k k k k k k k k k k k k k k k k k k q -               . R k k k k &.^.&.R k k k k k k k k k /./.(.      ",
"      _.! [ a i h k k k k k k k k k k k k k k k k k k k k k :.<.              p q k k k k k k k k k k k k k k k k /././.[.      ",
"    j ~ < 4 a h h k k k k k k k k k k k k k k k k k k k k r }.              |.r k k k k k k k k k k k k k k k k k /./././.1.    ",
"    I ~ [ 6 i h k k k k k k k k k k k k k k k k k k k k k 2.3.              / R k k k k k k k k k k k k k k k k k /./././.4.    ",
"     .< 4 a f h k k k k k k k k k k k k k k k k k k k k q 5.                6.s k k k k k k k k k k k k k k k k k /././.7.8.    ",
"  9.} [ 5 a h h k k k k k k k k k k k k k k b Z &.&.r k r 0.                s k k k k k k k k k k k k k k k k k k k /.7.a.a.b.  ",
"  z } 4 a f h k k k k k k k k k k k k k k r c.  d.e.f.+.2.g.              h.R k k k k k k k k k k k k k k k k k k k /./.a.a.i.  ",
"  C [ 4 a f h k k k k k k k k k k k k k k q i           j.                k.q k k k k k k k k k k k k k k k k k k k /./.a.l.m.  ",
"  _ [ 0 b h k k k k k k k k k k k k k k k k q :.a *.n.h.                  } r s k k k k k k k k k k k k k k k k k k /./.a.l.a.  ",
"o.[ [ a a h k k k k k k k k k k k k k k k k k k k q q :.S                 p.q.6.O V R k k k k k k k k k k k k k k k /./.8.l.a.r.",
"& 4 6 a f h k k k k k k k k k k k k k k k k k k k k k &.s.                        t.u.v.k k k k k k k k k k k k k k /./.8.l.w.x.",
"y.4 0 i f h k k k k k k k k k k k k k k k k k k k k q z.                A.Z B.C.D.    &.k k k k k k k k k k k k k k /./.8.l.l.E.",
"F.4 a a f h k k k k k k k k k k k k k k k k k k k k q G.                h k r s H.5 I q k k k k k k k k k k k k k k k /.a.l.I.J.",
"p 4 a a f h k k k k k k k k k k k k k k k k k k k k T K.              L.&.k k k k k k k k k k k k k k k k k k k k k ]./.M.l.N.O.",
"#.6 a b h h k k k k k k k k k k k k k k k k k k k k s P.              Q.q k k k k k k k k k k k k k k k k k k k k k /.7.l.l.N.R.",
"D 6 a i h k k k k k k k k k k k k k k k k k k k k s n.                S.k k k k k k k k k k k k k k k k k k k k k k /.7.l.I.T.U.",
"z a a f h h k k k k k k k k k k k k k k k k k k k q                 V.&.k k k k k k k k k k k k k k k k k k k k k k /.8.a.T.W.X.",
"8 a a f h h k k k k k k k k k k k k k k k k k k k T Y.              Z.s k k k k k k k k k k k k k k k k k k k k k k /.8.l.T.`. +",
"] a i i h h k k k k k k k k k k k k k k k k k k k {                 >.q k k k k k k k k k k k k k k k k k k k k k k /.a.l..+W.++",
"  a b i h h k k k k k k k k k k k k k k k k k k r @+              #+$+k k k k k k k k k k k k k k k k k k k k k k k /.l.%+.+&+  ",
"  m a f f h k k k k k k k k k k k k k k k k k k $.                C.q k k k k k k k k k k k k k k k k k k k k k k /.7.l.W.*+=+  ",
"  -+i f h h k k k k k k k k k k k k k k k k k k T ;+              ' k k k k k k k k k k k k k k k k k k k k k k k /.a.l..+>+,+  ",
"  D i f h h k k k k k k k k k k k k k k k k k q '+                )+k k k k k k k k k k k k k k k k k k k k k k ]./.l.T..+*+!+  ",
"    f f h h h k k k k k k k k k k k k k k k k R C.              ~+r k k k k k k k k k k k k k k k k k k k k k k /./.l.W.>+&+    ",
"    r f h h k k k k k k k k k k k k k k k k k &.{+              J k k k k k k k k k k k k k k k k k k k k k k k /.a.T..+]+^+    ",
"    /+h h h h k k k k k k k k k k k k k k k k +.              (+r k k k k k k k k k k k k k k k k k k k k k k /.7.l.N._+]+:+    ",
"      ^.h h k k k k k k k k k k k k k k k k r .               2.k k k k k k k k k k k k k k k k k k k k k k k /.8.%+.+&+<+      ",
"      [+h h k k k k k k k k k k k k k k k k r               }+r k k k k k k k k k k k k k k k k k k k k k k /.7.l.W._+|+1+      ",
"        -.k k k k k k k k k k r r s k k k k T 2+            &.k k k k k k k k k k k k k k k k k k k k k k /./.a.T._+&+3+        ",
"        4+k /.].k k k k k k T 5+6+7+:.k k s 8+            . q k k k k k k k k k k k k k k k k k k k k k ]./.7.l..+&+&+9+        ",
"          0+/./././.k k k $.        a+J k r b+          c+d+k k k k k k k k k k k k k k k k k k k k k k /.7.l.W.|+&+e+          ",
"          f+[././././.].q Q.          > s V g+          _ k k k k k k k k k k k k k k k k k k k k k k /./.l.T._+h+i+j+          ",
"            k+/.7./././.l+m+          G.r n+          o+q k k k k k k k k k k k k k k k k k k k k k /./.a.T..+&+h+p+            ",
"              q+7.7././.l+            i r+s+        t+r k k k k k k k k k k k k k k k k k k k k k /./.a.T..+&+u+v+              ",
"              w+x+a.7.7.y+z+      A+p r+{.      B+C+$.k k k k k k k k k k k k k k k k k k k k /./.7.a.T..+&+D+e+E+              ",
"                F+G+l.a.7.H+I+    J+4 m+      K+r k k k k k k k k k k k k k k k k k k k k k /./.7.l.T._+&+L+M+N+                ",
"                  O+P+l.l.a.Q+R+S+      T+U+[ r k k k k k k k k k k k k k k k k k k k k k /./.7.l.N.>+&+L+V+W+                  ",
"                    X+Y+l.l.l.Z+`+ @X .@&.q k k k k k k k k k k k k k k k k k k k k k /./.7.l.%+.+]+D++@@@#@                    ",
"                      $@%@I.T.l.l.a.a././././.k k k k k k k k k k k k k k k k k /././.7.l.T.W._+&+L+L+&@*@                      ",
"                          =@N.N.T.l.l.a.a.7./././.k k k k k k k k k k k k k /././.a.a.l.N..+_+&+L+i+-@                          ",
"                            ;@>@`.N.N.T.l.l.l.a.a.7./././././././././././.a.a.l.l.T.W..+]+&+,@u+'@)@                            ",
"                                !@Y+W..+.+N.T.T.l.l.l.l.l.l.l.l.l.l.l.l.T.T.N.W..+_+|+&+,@D+~@{@                                ",
"                                    ]@u+W..+_+^@.+W.W.T.T.T.T.T.T.T.W.W..+.+>+]+&+u+h+u+V+/@                                    ",
"                                        ++(@_+.+_+>+>+.+>+.+.+.+>+>+_+|+|+&+&+&+_@i+:@<@                                        ",
"                                              [@}@|@&+>+*+]+]+|+|+]+]+1@2@i+3@4@5@                                              ",
"                                                      6@7@8@9@0@a@b@c@d@e@                                                      "};
