/* XPM */
static char * bitcoin32_xpm[] = {
"32 32 152 2",
"  	c None",
". 	c #FFAB40",
"+ 	c #FFA22B",
"@ 	c #FFA12B",
"# 	c #FFA127",
"$ 	c #FFA026",
"% 	c #FFA129",
"& 	c #FFA027",
"* 	c #FFA635",
"= 	c #FFAC43",
"- 	c #FF9814",
"; 	c #FF9714",
"> 	c #FF9813",
", 	c #FF9712",
"' 	c #FF9611",
") 	c #FF9C1E",
"! 	c #FFA42F",
"~ 	c #FF9F24",
"{ 	c #FF9711",
"] 	c #FF9710",
"^ 	c #FF960F",
"/ 	c #FF950D",
"( 	c #FF950E",
"_ 	c #FF960E",
": 	c #FF9610",
"< 	c #FF9A18",
"[ 	c #FFA737",
"} 	c #FF940D",
"| 	c #FF940B",
"1 	c #FF940C",
"2 	c #FF9309",
"3 	c #FF9713",
"4 	c #FF9B1B",
"5 	c #FFA739",
"6 	c #FF9916",
"7 	c #FF9A19",
"8 	c #FF9F25",
"9 	c #FF9D22",
"0 	c #FFA534",
"a 	c #FF9B1A",
"b 	c #FFB85D",
"c 	c #FF930A",
"d 	c #FF950C",
"e 	c #FF9917",
"f 	c #FFA93D",
"g 	c #FF9D21",
"h 	c #FB9717",
"i 	c #FF9E21",
"j 	c #FF9105",
"k 	c #FFB961",
"l 	c #FF950F",
"m 	c #FF9207",
"n 	c #FE940C",
"o 	c #FFA838",
"p 	c #FF9308",
"q 	c #FF9208",
"r 	c #FE930B",
"s 	c #F59114",
"t 	c #FF9E23",
"u 	c #FF9206",
"v 	c #FFA93B",
"w 	c #F7900C",
"x 	c #FF9F23",
"y 	c #FF9918",
"z 	c #FFA532",
"A 	c #FFC171",
"B 	c #FFB251",
"C 	c #FFB75C",
"D 	c #FD930B",
"E 	c #EA8C13",
"F 	c #FF9E22",
"G 	c #FFA22C",
"H 	c #FC930B",
"I 	c #EF8C0E",
"J 	c #FFAE47",
"K 	c #FC920B",
"L 	c #EF8E11",
"M 	c #FF9C1D",
"N 	c #FFA12A",
"O 	c #FF920A",
"P 	c #FB930B",
"Q 	c #ED8B0D",
"R 	c #FFB354",
"S 	c #FFB14F",
"T 	c #EB8A0C",
"U 	c #FB910B",
"V 	c #E98A10",
"W 	c #FD920B",
"X 	c #FA910B",
"Y 	c #E5860D",
"Z 	c #FF9E20",
"` 	c #FFA634",
" .	c #FFB455",
"..	c #FF930B",
"+.	c #D47D0F",
"@.	c #FFA32E",
"#.	c #F9900B",
"$.	c #FF940A",
"%.	c #FF9104",
"&.	c #E4850B",
"*.	c #FE9917",
"=.	c #FB920B",
"-.	c #F8900B",
";.	c #CC790E",
">.	c #FD940C",
",.	c #FF9D1F",
"'.	c #FFA736",
").	c #FF9106",
"!.	c #FFAD47",
"~.	c #E8860B",
"{.	c #F79316",
"].	c #FFAD43",
"^.	c #F9910B",
"/.	c #F78F0B",
"(.	c #BE710E",
"_.	c #F6910F",
":.	c #FE9D22",
"<.	c #FFAF4A",
"[.	c #FFA431",
"}.	c #F68F0B",
"|.	c #D37B0B",
"1.	c #F68F0D",
"2.	c #FE9B1D",
"3.	c #FF9F26",
"4.	c #DE810A",
"5.	c #F38E0C",
"6.	c #FD991A",
"7.	c #FEA028",
"8.	c #FE9E25",
"9.	c #FF9409",
"0.	c #DC810A",
"a.	c #EA890E",
"b.	c #F68E0A",
"c.	c #D07A0B",
"d.	c #D98213",
"e.	c #F18C0B",
"f.	c #FA920B",
"g.	c #E4850A",
"h.	c #B66C0E",
"i.	c #D98111",
"j.	c #E9870B",
"k.	c #F8910B",
"l.	c #DD800A",
"m.	c #C2730D",
"n.	c #D27C0F",
"o.	c #DF830C",
"p.	c #E2850F",
"q.	c #E0820B",
"r.	c #DF820B",
"s.	c #DE830E",
"t.	c #DA7F0B",
"u.	c #C5740C",
"                        . + @ # $ % & *                         ",
"                  = % - - ; > , , , , , ' ) !                   ",
"                ~ - - { ] ^ / / / / ( _ ^ ] : < !               ",
"            [ - > { ( } | | | | | | | | 1 } _ ^ ^ )             ",
"          + - { ( 1 | | | | | | | | | 2 3 4 5 1 / ^ 6           ",
"        % - { / 1 | | | | | | | | | 7       8   9 1 / ,         ",
"      0 ; { / | | | | | | | | | | a       / b     c 1 d ,       ",
"      > { / | | | | | | | | | | e       f g       d 1 1 1 h     ",
"    i 3 / 1 | | | | | | | | | j k       l m     [ 2 | | | n     ",
"  o 3 : 1 | | | | | | | | | | !         p | p q 2 | | | | r s   ",
"  t { / | | | | | | | | | | u         v | | | | | | | | r r w   ",
"  , ] 1 | | | | | | | / u p x         y | | | | | | | | | r r   ",
"z { ( | | | | | | | q A   B C         p | | | | | | | | | r D E ",
"F { ( | | | | | | | | q e 9           G q 2 | | | | | | | r H I ",
"x ] } | | | | | | | | | | ^         J     . | | | | | | | r K L ",
"M ^ 1 | | | | | | | | | | N         m u O : | | | | | | | | P Q ",
"4 _ } | | | | | | | | | 2 R       S 2 | | | | | | | | | | D K T ",
"M ^ 1 | | | | | | | | | q         0 | | | | | | | | | | | r U V ",
"< l 1 | | | | | | | | | ~         ^ | | | | | | | | | | | W X Y ",
"Z ( 1 | | | | | | | | | `        .2 | | | | | | | | | | ..H X +.",
"  / 1 | | | | | | | | m         @.| | | | | | | | | | | r X #.  ",
"  : 1 1 | | | | | | | $.        %.| | | | | | | | | | | D #.&.  ",
"  *.1 | | | | | | | | 8       * | | | | | | | | | | | r =.-.;.  ",
"    >.| | | | ,.'.).$.!.      j | | | | | | | | | | ..D -.~.    ",
"    {.r r | 6     ].j       & | | | | | | | | | | | D ^./.(.    ",
"      _.r r :.    <.&     [.2 | | | | | | | | | | r X }.|.      ",
"        1.D 2.    M     3.2 | | | | | | | | | r D X }.4.        ",
"          5.K 6.7.8.@ 9.| | | | | | | | | | r D ^.}.0.          ",
"            a.=.=.W D r | | | | | | | | r D X /.b.c.            ",
"              d.e.X X U H W W W W W K f.#./.}.g.h.              ",
"                  i.j.^.^.k.^.^.k.-././.b.l.m.                  ",
"                        n.o.p.q.r.s.t.u.                        "};
